<svg xmlns="http://www.w3.org/2000/svg" viewBox="0 0 24 24" fill="currentColor" class="w-6 h-6">
  <path fill-rule="evenodd" d="M1.5 4.5a3 3 0 0 1 3-3h1.372c.86 0 1.61.586 1.819 1.42l1.105 4.423a1.875 1.875 0 0 1-.694 1.955l-1.293.97c-.135.101-.164.279-.087.431l4.106 7.482a1.875 1.875 0 0 1 1.955-.694l4.423 1.105c.834.209 1.42.959 1.42 1.82V19.5a3 3 0 0 1-3 3h-1.372c-.86 0-1.61-.586-1.819-1.42l-1.105-4.423a1.875 1.875 0 0 1 .694-1.955l1.293-.97c.135-.101.164-.279.087-.431l-4.106-7.482A1.875 1.875 0 0 1 8.943 3.694l-4.423-1.105a3.003 3.003 0 0 1-1.82-.188A3 3 0 0 1 1.5 4.5Zm15-1.5a.75.75 0 0 0-.75.75V5.25a.75.75 0 0 0 1.5 0V3.75a.75.75 0 0 0-.75-.75Z" clip-rule="evenodd" />
  <path d="M8.29 8.97a2.625 2.625 0 1 1 3.712 3.712 2.625 2.625 0 0 1-3.712-3.712ZM11.878 11.12a.75.75 0 0 1 .057 1.057l-1.005 1.005a.75.75 0 1 1-1.06-1.06l1.005-1.005a.75.75 0 0 1 1.003-.002Z" />
  <path fill-rule="evenodd" d="M10.5 18a.75.75 0 0 0 0 1.5h3a.75.75 0 0 0 0-1.5h-3Z" clip-rule="evenodd" />
</svg> 